<svg width="81" height="76" viewBox="0 0 81 76" fill="none" xmlns="http://www.w3.org/2000/svg">
<g id="Group 37286">
<g id="Group">
<g id="Group_2">
<path id="Vector" d="M48.25 20.8231C48.25 20.8103 48.25 20.799 48.25 20.7863C48.25 14.2267 53.6913 8.90859 60.25 8.90859C66.8096 8.90859 72.25 14.2269 72.25 20.7863C72.25 20.7923 72.25 20.799 72.25 20.8043C72.25 20.8141 72.25 20.8231 72.25 20.8329C72.25 20.8336 72.25 20.8351 72.25 20.8367C72.25 21.8266 72.25 30.7502 72.25 30.7502H80.5C80.5 30.7502 80.5 21.8649 80.5 20.8419C80.5 20.8292 80.5 20.8172 80.5 20.8044C80.5 20.7984 80.5 20.7917 80.5 20.7864C80.5 9.30602 71.7303 0 60.25 0C48.7697 0 40 9.30601 40 20.7863C40 20.7923 40 20.799 40 20.8043C40 20.8088 40 20.8125 40 20.8171C40 21.6916 40 30.75 40 30.75H48.25C48.25 30.75 48.25 21.7298 48.25 20.8231Z" fill="white"/>
<path id="Vector_2" d="M0 35.5V68.8817C0 72.817 3.51299 76 7.44829 76H47.2883C51.2251 76 54.0001 72.817 54.0001 68.8817V35.5H0ZM34.9411 65.8945C33.5303 67.0442 31.5256 67.7613 28.9269 68.0447V70.4793H25.1694V68.1632C23.6244 68.1152 22.1716 67.9779 20.8096 67.7493C19.4468 67.5205 18.3158 67.2026 17.418 66.7923V62.1603C18.0322 62.3807 18.6315 62.5742 19.2142 62.7393C19.7962 62.9043 20.3955 63.0461 21.0104 63.1638C21.6247 63.2823 22.2712 63.3768 22.9484 63.4473C23.6249 63.5185 24.3667 63.562 25.1699 63.5778V58.4028C24.1769 58.261 23.1922 58.0684 22.2156 57.8238C21.2384 57.58 20.3608 57.2139 19.5808 56.725C18.8008 56.2367 18.1663 55.5902 17.6781 54.787C17.1898 53.9837 16.9454 52.9435 16.9454 51.6677C16.9454 50.6275 17.1343 49.7028 17.5124 48.8913C17.8912 48.0797 18.4341 47.3785 19.1436 46.7875C19.8523 46.1964 20.7149 45.7202 21.7312 45.3579C22.7466 44.9957 23.8934 44.7437 25.1699 44.6012V42.1675H28.9274V44.5307C30.0771 44.5937 31.2471 44.7235 32.4366 44.9207C33.626 45.118 34.7173 45.3894 35.7096 45.7359V50.4152C33.2834 49.6269 31.0228 49.1859 28.9274 49.0914V54.3376C29.9196 54.4951 30.9006 54.7036 31.8696 54.9638C32.8386 55.2241 33.7049 55.6021 34.4692 56.0986C35.2334 56.5943 35.8559 57.2446 36.3359 58.0486C36.8167 58.8519 37.0567 59.8839 37.0567 61.1446C37.0553 63.1615 36.3503 64.7447 34.9411 65.8945Z" fill="white"/>
<path id="Vector_3" d="M22.1203 51.4315C22.1203 52.0938 22.3723 52.5978 22.8771 52.9442C23.3811 53.2915 24.1446 53.5585 25.1698 53.7476V49.2101C24.0194 49.3368 23.2236 49.5925 22.7826 49.9781C22.3408 50.3642 22.1203 50.8495 22.1203 51.4315Z" fill="white"/>
<path id="Vector_4" d="M31.1364 59.7374C30.6549 59.3984 29.9191 59.1426 28.9268 58.9693V63.4124C30.8798 63.1604 31.8571 62.4359 31.8571 61.2388C31.8571 60.5766 31.6164 60.0772 31.1364 59.7374Z" fill="white"/>
</g>
</g>
<rect id="Rectangle 430" x="14" y="41" width="26" height="30" fill="white"/>
</g>
</svg>
