<svg width="108" height="69" viewBox="0 0 108 69" fill="none" xmlns="http://www.w3.org/2000/svg">
<g id="Group 37285">
<g id="Line 1">
<line x1="16.3734" y1="65.6896" x2="45.3734" y2="32.6896" stroke="white" stroke-width="7"/>
<line x1="16.3734" y1="65.6896" x2="45.3734" y2="32.6896" stroke="white" stroke-width="7"/>
<line x1="16.3734" y1="65.6896" x2="45.3734" y2="32.6896" stroke="white" stroke-width="7"/>
<line x1="16.3734" y1="65.6896" x2="45.3734" y2="32.6896" stroke="white" stroke-width="7"/>
</g>
<g id="Line 4">
<line y1="65" x2="97.0052" y2="65" stroke="white" stroke-width="7"/>
<line y1="65" x2="97.0052" y2="65" stroke="white" stroke-width="7"/>
<line y1="65" x2="97.0052" y2="65" stroke="white" stroke-width="7"/>
<line y1="65" x2="97.0052" y2="65" stroke="white" stroke-width="7"/>
</g>
<g id="Line 3">
<line x1="56.3734" y1="53.6896" x2="85.3735" y2="20.6896" stroke="white" stroke-width="7"/>
<line x1="56.3734" y1="53.6896" x2="85.3735" y2="20.6896" stroke="white" stroke-width="7"/>
<line x1="56.3734" y1="53.6896" x2="85.3735" y2="20.6896" stroke="white" stroke-width="7"/>
<line x1="56.3734" y1="53.6896" x2="85.3735" y2="20.6896" stroke="white" stroke-width="7"/>
</g>
<g id="Line 2">
<line x1="40.4774" y1="32.5251" x2="61.4774" y2="53.5251" stroke="white" stroke-width="7"/>
<line x1="40.4774" y1="32.5251" x2="61.4774" y2="53.5251" stroke="white" stroke-width="7"/>
<line x1="40.4774" y1="32.5251" x2="61.4774" y2="53.5251" stroke="white" stroke-width="7"/>
<line x1="40.4774" y1="32.5251" x2="61.4774" y2="53.5251" stroke="white" stroke-width="7"/>
</g>
<path id="Polygon 1" d="M93.5175 13.8082L95.8822 35.2988L72.0338 11.3823L93.5175 13.8082Z" fill="white"/>
</g>
</svg>
