<svg width="78" height="78" viewBox="0 0 78 78" fill="none" xmlns="http://www.w3.org/2000/svg">
<g id="loan 1" clip-path="url(#clip0_1000_2460)">
<g id="Group">
<g id="Group_2">
<path id="Vector" d="M38.9979 -0.00183105C26.8175 -0.00183105 16.908 9.90767 16.908 22.088C16.908 34.2684 26.8175 44.1779 38.9979 44.1779C51.1782 44.1779 61.0877 34.2684 61.0877 22.088C61.0877 9.90767 51.1782 -0.00183105 38.9979 -0.00183105ZM41.283 33.1207V35.799H36.7127V33.3263L33.4707 33.0484L33.8611 28.4947L38.8752 28.9244C39.0442 28.9389 39.1878 28.9388 39.3021 28.9237C40.4313 28.7751 41.2832 27.8012 41.2832 26.6582C41.2832 25.3981 40.258 24.373 38.998 24.373C35.2179 24.373 32.1425 21.2977 32.1425 17.5175C32.1425 15.9859 32.6369 14.5369 33.5721 13.3272C34.3826 12.2787 35.4819 11.5144 36.7129 11.0905V8.37708H41.2832V10.9655L44.6532 11.447L44.0069 15.9713L39.3356 15.304C38.4945 15.1838 37.6712 15.4975 37.188 16.1225C36.8771 16.5246 36.7129 17.007 36.7129 17.5177C36.7129 18.7777 37.738 19.8029 38.998 19.8029C42.7781 19.8029 45.8535 22.8782 45.8535 26.6583C45.8533 29.6015 43.9655 32.1698 41.283 33.1207Z" fill="white"/>
</g>
</g>
<g id="Group_3">
<g id="Group_4">
<path id="Vector_2" d="M76.535 41.7902C74.5022 39.6782 71.0704 39.7177 68.9978 41.7905L58.1969 52.5914C57.7629 53.0256 57.4262 53.545 57.1916 54.1122C55.7205 57.6682 52.2145 60.1766 48.1332 60.1766H32.8889V55.6063H48.1334C51.0204 55.6063 53.3609 53.2658 53.3609 50.3787C53.3609 48.5057 52.3751 46.8635 50.8946 45.9405C47.3104 47.736 43.2689 48.7486 38.9947 48.7486C31.7497 48.7486 25.1718 45.8424 20.3619 41.1362C17.2737 41.4678 14.3033 42.8269 11.9918 45.1384L0.000511169 57.1355L20.8637 77.9987C24.5455 74.3169 29.5392 72.2485 34.746 72.2485H46.928C51.1018 72.2485 55.1034 70.5847 58.0467 67.6256L76.4635 49.1103C78.481 47.093 78.5048 43.8368 76.535 41.7902Z" fill="white"/>
</g>
</g>
</g>
<defs>
<clipPath id="clip0_1000_2460">
<rect width="78" height="78" fill="white"/>
</clipPath>
</defs>
</svg>
