<svg width="75" height="75" viewBox="0 0 75 75" fill="none" xmlns="http://www.w3.org/2000/svg">
<g clip-path="url(#clip0_1003_3314)">
<path d="M62.4632 16.1529C57.0531 10.5566 50.0511 6.9981 42.4521 5.91558L44.618 3.74967C45.4761 2.89156 45.4761 1.5004 44.618 0.642294C43.7601 -0.215665 42.3687 -0.215665 41.5106 0.642294L35.9461 6.20665C35.088 7.06461 35.088 8.45592 35.9461 9.31402L41.5105 14.8784C41.9395 15.3074 42.5019 15.522 43.0641 15.522C43.6263 15.522 44.1888 15.3074 44.6177 14.8784C45.4758 14.0204 45.4758 12.6291 44.6177 11.771L43.3733 10.5266C49.4104 11.708 54.9473 14.7013 59.3034 19.2071C64.7972 24.8901 67.8229 32.3743 67.8229 40.2808C67.8232 57.0011 54.2201 70.6041 37.4999 70.6041C20.7797 70.6041 7.17663 57.0011 7.17663 40.281C7.17663 33.9008 9.13469 27.7977 12.8393 22.6315C16.467 17.5724 21.4679 13.7973 27.302 11.7146C28.4448 11.3065 29.0404 10.0494 28.6325 8.90636C28.2245 7.76348 26.9671 7.16788 25.8242 7.57584C19.1441 9.96075 13.4191 14.2815 9.26784 20.0707C5.02478 25.988 2.7821 32.9767 2.7821 40.2811C2.7821 49.5546 6.39338 58.2729 12.9507 64.8303C19.5081 71.3872 28.2264 74.9986 37.4999 74.9986C46.7734 74.9986 55.4917 71.3874 62.049 64.8301C68.6064 58.2728 72.2177 49.5544 72.2177 40.281C72.2177 31.2285 68.7533 22.6596 62.4632 16.1529Z" fill="white"/>
<path d="M14.9244 40.2814C14.9244 52.7295 25.0517 62.8569 37.5 62.8569C49.9481 62.8569 60.0754 52.7295 60.0754 40.2814C60.0754 27.8333 49.9481 17.7056 37.5 17.7056C25.0516 17.7056 14.9244 27.8331 14.9244 40.2814ZM38.8488 42.2371C35.6859 41.119 33.8534 40.2377 32.5239 39.1949C30.8877 37.9116 30.1387 35.6951 30.5691 33.4107C31.036 30.9325 32.7643 28.9596 35.0795 28.2622C35.1115 28.2525 35.143 28.2448 35.175 28.2354V27.3506C35.175 26.1371 36.1588 25.1534 37.3722 25.1534C38.5857 25.1534 39.5695 26.1371 39.5695 27.3506V28.0955C41.1036 28.4548 42.1744 29.156 42.6073 29.4796C43.5792 30.2063 43.7781 31.5831 43.0516 32.5552C42.3249 33.5273 40.9484 33.7259 39.976 32.9995C39.5108 32.6518 38.2267 31.9035 36.347 32.4698C35.2365 32.8044 34.9492 33.8973 34.8876 34.2244C34.7658 34.8704 34.9057 35.4785 35.2358 35.7372C36.3852 36.6385 38.4474 37.4343 40.3132 38.0938C43.7263 39.3002 45.6241 42.4621 45.0359 45.9615C44.747 47.6796 43.8827 49.2738 42.6019 50.4506C41.7211 51.2598 40.6946 51.8352 39.5695 52.1598V53.2119C39.5695 54.4254 38.5857 55.4091 37.3722 55.4091C36.1588 55.4091 35.175 54.4254 35.175 53.2119V52.3759C33.7132 52.2041 32.4934 51.7539 30.8529 50.6808C29.8374 50.0165 29.5527 48.6546 30.2171 47.639C30.8814 46.6233 32.2434 46.3388 33.2588 47.0031C34.7797 47.9982 35.3548 48.0896 37.3576 48.0757C39.3294 48.0625 40.4734 46.5928 40.7021 45.2329C40.814 44.5687 40.8569 42.947 38.8488 42.2371Z" fill="white"/>
</g>
<defs>
<clipPath id="clip0_1003_3314">
<rect width="75" height="75" fill="white"/>
</clipPath>
</defs>
</svg>
