<svg width="70" height="70" viewBox="0 0 70 70" fill="none" xmlns="http://www.w3.org/2000/svg">
<g id="space-rocket-launch 1" clip-path="url(#clip0_1003_3327)">
<g id="Group">
<g id="Layer_5_87_">
<g id="Group_2">
<path id="Vector" d="M18.2092 44.399C17.1396 43.3299 16.7368 43.8671 16.4989 44.1052C10.3396 50.2645 4.87146 65.126 7.76224 63.6744C18.2858 58.3906 20.0392 59.9637 26.1984 53.8048C26.4365 53.5667 26.984 53.1742 25.8833 52.0733L18.2092 44.399Z" fill="white"/>
<path id="Vector_2" d="M51.4136 44.3165C51.1345 43.4282 51.7192 43.0001 51.9653 42.7345C65.5595 28.0578 74.1992 8.50392 67.7968 2.101C61.4279 -4.26742 42.4771 4.62472 27.8044 18.1209C27.5142 18.3883 26.942 18.8946 25.9185 18.6808L21.3471 17.5923C20.0778 17.2905 18.2844 17.7978 17.3619 18.7204L0.587876 35.4942C-0.334698 36.417 -0.0349559 37.3377 1.25404 37.54L13.3861 39.4466C14.6751 39.6493 16.4845 39.0602 17.4069 38.1374C17.4069 38.1374 18.0329 37.5097 18.6618 38.1384C22.1316 41.6079 28.5796 48.0558 31.8854 51.3618C32.5425 52.0187 31.9131 52.6436 31.9131 52.6436C30.9903 53.5664 30.4014 55.3754 30.6041 56.6646L32.5105 68.7965C32.7131 70.0859 33.6337 70.3857 34.5563 69.4629L51.3305 52.6887C52.2529 51.7661 52.7604 49.9731 52.4582 48.7039L51.4136 44.3165ZM47.6581 22.6456C44.817 19.8045 44.817 15.1986 47.6581 12.3579C50.499 9.51673 55.1049 9.51673 57.9463 12.3579C60.787 15.1984 60.787 19.8045 57.9463 22.6454C55.1049 25.4866 50.4988 25.4866 47.6581 22.6456Z" fill="white"/>
</g>
</g>
</g>
</g>
<defs>
<clipPath id="clip0_1003_3327">
<rect width="70" height="70" fill="white"/>
</clipPath>
</defs>
</svg>
