<svg width="70" height="70" viewBox="0 0 70 70" fill="none" xmlns="http://www.w3.org/2000/svg">
<g id="store 2" clip-path="url(#clip0_1003_3333)">
<path id="Vector" fill-rule="evenodd" clip-rule="evenodd" d="M30.9778 44.135C30.9778 43.6067 31.0819 43.0835 31.2841 42.5954C31.4862 42.1074 31.7826 41.6639 32.1561 41.2903C32.5297 40.9167 32.9732 40.6204 33.4613 40.4182C33.9494 40.2161 34.4725 40.112 35.0008 40.112C35.5291 40.112 36.0522 40.2161 36.5403 40.4182C37.0284 40.6204 37.4719 40.9167 37.8454 41.2903C38.219 41.6639 38.5153 42.1074 38.7175 42.5954C38.9197 43.0835 39.0237 43.6067 39.0237 44.135C39.0279 44.6207 39.2238 45.0852 39.5688 45.4272C39.9138 45.7692 40.3799 45.9611 40.8657 45.9611C41.3515 45.9611 41.8176 45.7692 42.1626 45.4272C42.5075 45.0852 42.7034 44.6207 42.7076 44.135C42.7051 42.4886 42.1766 40.8861 41.1991 39.5613C40.2216 38.2365 38.8464 37.2588 37.274 36.7707L36.8416 36.6369V33.9119C36.8416 33.4235 36.6475 32.955 36.3021 32.6095C35.9567 32.2641 35.4882 32.0701 34.9997 32.0701C34.5112 32.0701 34.0427 32.2641 33.6973 32.6095C33.3519 32.955 33.1578 33.4235 33.1578 33.9119V36.6369L32.7254 36.7707C30.9627 37.3152 29.4538 38.4738 28.4728 40.0362C27.4917 41.5985 27.1036 43.461 27.379 45.2851C27.6543 47.1093 28.5748 48.7742 29.9733 49.9774C31.3718 51.1806 33.1554 51.8423 35.0002 51.8422C35.796 51.8421 36.5739 52.0779 37.2356 52.5199C37.8973 52.9619 38.4131 53.5903 38.7176 54.3254C39.0222 55.0606 39.102 55.8695 38.9467 56.65C38.7915 57.4305 38.4084 58.1474 37.8457 58.71C37.283 59.2727 36.5661 59.6559 35.7856 59.8111C35.0052 59.9663 34.1962 59.8866 33.461 59.582C32.7259 59.2774 32.0976 58.7617 31.6556 58.1C31.2136 57.4383 30.9777 56.6604 30.9778 55.8646C30.9737 55.3787 30.7777 54.9141 30.4326 54.572C30.0875 54.2299 29.6213 54.0379 29.1354 54.0379C28.6494 54.0379 28.1832 54.2299 27.8381 54.572C27.493 54.9141 27.2971 55.3787 27.2929 55.8646C27.2955 57.511 27.8239 59.1134 28.8012 60.4383C29.7784 61.7633 31.1534 62.7414 32.7255 63.2301L33.1578 63.3639V66.0865C33.1578 66.575 33.3519 67.0435 33.6973 67.3889C34.0427 67.7343 34.5112 67.9284 34.9997 67.9284C35.4882 67.9284 35.9567 67.7343 36.3021 67.3889C36.6475 67.0435 36.8416 66.575 36.8416 66.0865V63.3639L37.2739 63.2299C39.0366 62.6857 40.5457 61.5272 41.5269 59.9649C42.5081 58.4026 42.8963 56.5402 42.6211 54.716C42.346 52.8918 41.4255 51.2268 40.0271 50.0235C38.6287 48.8203 36.8451 48.1585 35.0002 48.1585C33.9337 48.157 32.9113 47.7326 32.1572 46.9783C31.4031 46.2241 30.979 45.2015 30.9778 44.135ZM3.95389 0.000366211H16.0808L14.9573 15.6506H0.692052L3.95389 0.000366211ZM69.3097 15.6506H55.0432L53.9201 0.000366211H66.047L69.3097 15.6506ZM17.0627 25.5545C18.0948 26.8855 19.4177 27.9628 20.9302 28.7039C22.4427 29.445 24.1047 29.8303 25.789 29.8303C27.4732 29.8303 29.1352 29.445 30.6477 28.7039C32.1602 27.9628 33.4831 26.8855 34.5152 25.5545L35.0002 24.9319L35.4848 25.5545C36.5167 26.8855 37.8395 27.9628 39.3519 28.7039C40.8643 29.445 42.5262 29.8303 44.2104 29.8303C45.8946 29.8303 47.5565 29.445 49.0688 28.7039C50.5812 27.9628 51.904 26.8855 52.936 25.5545L53.4204 24.9317L53.9052 25.5542C54.9371 26.8854 56.2599 27.9628 57.7723 28.704C59.2848 29.4452 60.9468 29.8305 62.6311 29.8303C62.9795 29.8303 63.3273 29.8141 63.6747 29.7815L64.3461 29.7184V66.4704C64.345 67.4064 63.9727 68.3038 63.3107 68.9656C62.6488 69.6274 61.7514 69.9995 60.8153 70.0004H9.18625C8.25017 69.9996 7.35263 69.6275 6.69061 68.9657C6.02858 68.3039 5.65616 67.4065 5.65508 66.4704V29.7184L6.32664 29.7815C6.67299 29.8141 7.02012 29.8303 7.36803 29.8303C9.05235 29.8307 10.7144 29.4456 12.2269 28.7045C13.7395 27.9634 15.0623 26.8859 16.0941 25.5546L16.5786 24.9317L17.0627 25.5545ZM-0.0143738 19.3354L0.112091 20.0556C0.412282 21.762 1.30425 23.308 2.63127 24.422C3.95829 25.5359 5.63544 26.1465 7.36803 26.1465C9.10061 26.1465 10.7778 25.5359 12.1048 24.422C13.4318 23.308 14.3238 21.762 14.624 20.0556L14.75 19.3357L-0.0143738 19.3354ZM33.0452 20.0556L33.1716 19.3354H18.4085L18.5347 20.0554C18.8347 21.7617 19.7265 23.3078 21.0535 24.4218C22.3804 25.5357 24.0575 26.1464 25.7901 26.1464C27.5226 26.1464 29.1997 25.5357 30.5266 24.4218C31.8536 23.3078 32.7452 21.762 33.0452 20.0556ZM51.4666 20.0556L51.5931 19.3354H36.8299L36.9561 20.0554C37.2562 21.7617 38.148 23.3078 39.4749 24.4218C40.8019 25.5357 42.479 26.1464 44.2115 26.1464C45.9441 26.1464 47.6212 25.5357 48.9481 24.4218C50.2751 23.3078 51.1666 21.762 51.4666 20.0556ZM62.6311 26.1466C64.3633 26.1449 66.0397 25.5337 67.3666 24.42C68.6934 23.3064 69.5861 21.7614 69.8881 20.0556L70.0146 19.3354H55.2502L55.3765 20.0556C55.6784 21.761 56.5707 23.3057 57.897 24.4193C59.2234 25.5329 60.8992 26.1444 62.6311 26.1466ZM50.2274 0.000366211L51.3496 15.6506H36.8416V0.000366211H50.2274ZM33.1578 0.000366211V15.6506H18.6496L19.7743 0.000366211H33.1578Z" fill="white"/>
</g>
<defs>
<clipPath id="clip0_1003_3333">
<rect width="70" height="70" fill="white"/>
</clipPath>
</defs>
</svg>
